<svg width="920" height="260" viewBox="0 0 920 260" fill="none" xmlns="http://www.w3.org/2000/svg">
  <rect width="920" height="260" fill="#F6EEE4"/>
  <circle cx="164" cy="130" r="86" fill="#C95A2E"/>
  <path d="M164.2 72C151.1 82.9 147.2 95.4 147.2 103.8C147.2 114.6 154.8 122.4 164.2 122.4C173.6 122.4 181.2 114.6 181.2 103.8C181.2 95.4 177.3 82.9 164.2 72Z" fill="#FBF1E3"/>
  <path d="M163.9 127.7C147.9 127.7 134.9 140.7 134.9 156.7V159.3C134.9 170 140.9 179.3 149.7 184.1V194.4H140.2C136.7 194.4 133.9 197.2 133.9 200.7C133.9 204.1 136.7 207 140.2 207H187.5C191 207 193.8 204.1 193.8 200.7C193.8 197.2 191 194.4 187.5 194.4H178V184.1C186.8 179.3 192.8 170 192.8 159.3V156.7C192.8 140.7 179.9 127.7 163.9 127.7ZM163.9 140.7C172.8 140.7 180 147.9 180 156.7V159.3C180 168.2 172.8 175.4 163.9 175.4C155 175.4 147.8 168.2 147.8 159.3V156.7C147.8 147.9 155 140.7 163.9 140.7Z" fill="#FBF1E3"/>
  <path d="M112 116C120.9 120.1 124.3 126.1 124.3 132.9C124.3 140.3 118.8 145.8 112 145.8C105.2 145.8 99.7 140.3 99.7 132.9C99.7 126.1 103.1 120.1 112 116Z" fill="#88B95F"/>
  <path d="M216.5 116C225.4 120.1 228.8 126.1 228.8 132.9C228.8 140.3 223.3 145.8 216.5 145.8C209.7 145.8 204.2 140.3 204.2 132.9C204.2 126.1 207.6 120.1 216.5 116Z" fill="#88B95F"/>
  <text x="292" y="126" fill="#C95A2E" font-family="Georgia, 'Times New Roman', serif" font-size="88">Ostria</text>
  <text x="292" y="184" fill="#88B95F" font-family="Arial, Helvetica, sans-serif" font-size="38" letter-spacing="7">RISTORANTE ITALIANO</text>
</svg>
